<svg xmlns="http://www.w3.org/2000/svg" version="1.1" xmlns:xlink="http://www.w3.org/1999/xlink" xmlns:svgjs="http://svgjs.dev/svgjs" width="1000" height="98" viewBox="0 0 1000 98"><g transform="matrix(1,0,0,1,-0.60604424903471,0.3764445353808128)"><svg viewBox="0 0 396 39" data-background-color="#f8f8f8" preserveAspectRatio="xMidYMid meet" height="98" width="1000" xmlns="http://www.w3.org/2000/svg" xmlns:xlink="http://www.w3.org/1999/xlink"><g id="tight-bounds" transform="matrix(1,0,0,1,0.23999352261773765,-0.14980955999848788)"><svg viewBox="0 0 395.52 39.299619119996954" height="39.299619119996954" width="395.52"><g><svg viewBox="0 0 506.36824761916034 50.31371173617847" height="39.299619119996954" width="395.52"><g><rect width="4.168809325009816" height="50.31371173617847" x="95.76632487789445" y="0" fill="#ffffff" opacity="1" stroke-width="0" stroke="transparent" fill-opacity="1" class="rect-o-0" data-fill-palette-color="primary" rx="1%" id="o-0" data-palette-color="#ffffff"></rect></g><g transform="matrix(1,0,0,1,110.84824761916033,0.1251584869059137)"><svg viewBox="0 0 395.52 50.06339476236664" height="50.06339476236664" width="395.52"><g><svg viewBox="0 0 395.52 50.06339476236664" height="50.06339476236664" width="395.52"><g><svg viewBox="0 0 395.52 50.06339476236664" height="50.06339476236664" width="395.52"><g transform="matrix(1,0,0,1,0,0)"><svg width="395.52" viewBox="2.799999237060547 -35.79999923706055 309.29998779296875 36.150001525878906" height="50.06339476236664" data-palette-color="#ffffff"><svg></svg><g class="undefined-text-0" data-fill-palette-color="primary" id="text-0"><path xmlns="http://www.w3.org/2000/svg" d="M12.6-35.25v27.75h10.95v7.5h-20.75v-35.25zM51.55 0l-1.9-5.75h-12.5l-1.9 5.75h-10.3l12.85-35.25h11.3l12.8 35.25zM39.65-13.25h7.55l-3.8-11.4zM93.9 0h-10.95l-7-13h-1.05v13h-9.8v-35.25h15.45c2.833 0 5.233 0.493 7.2 1.48 1.967 0.98 3.45 2.327 4.45 4.04 1 1.72 1.5 3.647 1.5 5.78v0c0 2.4-0.66 4.507-1.98 6.32-1.313 1.82-3.237 3.113-5.77 3.88v0zM74.9-27.05v7.35h4.85c1.333 0 2.333-0.317 3-0.95 0.667-0.633 1-1.55 1-2.75v0c0-1.133-0.343-2.027-1.03-2.68-0.68-0.647-1.67-0.97-2.97-0.97v0zM122.35 0l-1.9-5.75h-12.5l-1.9 5.75h-10.3l12.85-35.25h11.3l12.8 35.25zM110.45-13.25h7.55l-3.8-11.4zM168.95-23.65h-10.55c-0.567-0.933-1.343-1.65-2.33-2.15-0.98-0.5-2.137-0.75-3.47-0.75v0c-2.467 0-4.407 0.8-5.82 2.4-1.42 1.6-2.13 3.75-2.13 6.45v0c0 3.033 0.757 5.34 2.27 6.92 1.52 1.587 3.73 2.38 6.63 2.38v0c3.433 0 5.883-1.55 7.35-4.65v0h-9.85v-7.05h18.3v9.5c-0.767 1.867-1.893 3.617-3.38 5.25-1.48 1.633-3.353 2.973-5.62 4.02-2.267 1.053-4.85 1.58-7.75 1.58v0c-3.533 0-6.66-0.757-9.38-2.27-2.713-1.52-4.813-3.64-6.3-6.36-1.48-2.713-2.22-5.82-2.22-9.32v0c0-3.467 0.74-6.56 2.22-9.28 1.487-2.713 3.58-4.83 6.28-6.35 2.7-1.513 5.817-2.27 9.35-2.27v0c4.433 0 8.1 1.067 11 3.2 2.9 2.133 4.7 5.05 5.4 8.75zM197.95 0l-1.9-5.75h-12.5l-1.9 5.75h-10.3l12.85-35.25h11.3l12.8 35.25zM186.05-13.25h7.55l-3.8-11.4zM240.85-35.25h11.8v35.25h-9.8v-19.45l-6.65 19.45h-8.2l-6.7-19.6v19.6h-9.8v-35.25h11.85l8.85 22.9zM280.8-27.4h-12.75v5.75h11.25v7.45h-11.25v6.35h12.75v7.85h-22.55v-35.25h22.55zM298.95 0.35c-4.1 0-7.467-0.977-10.1-2.93-2.633-1.947-4.05-4.737-4.25-8.37v0h10.45c0.1 1.233 0.467 2.133 1.1 2.7 0.633 0.567 1.45 0.85 2.45 0.85v0c0.9 0 1.64-0.227 2.22-0.68 0.587-0.447 0.88-1.07 0.88-1.87v0c0-1.033-0.483-1.833-1.45-2.4-0.967-0.567-2.533-1.2-4.7-1.9v0c-2.3-0.767-4.16-1.51-5.58-2.23-1.413-0.713-2.647-1.763-3.7-3.15-1.047-1.38-1.57-3.187-1.57-5.42v0c0-2.267 0.567-4.21 1.7-5.83 1.133-1.613 2.7-2.837 4.7-3.67 2-0.833 4.267-1.25 6.8-1.25v0c4.1 0 7.373 0.957 9.82 2.87 2.453 1.92 3.763 4.613 3.93 8.08v0h-10.65c-0.033-1.067-0.36-1.867-0.98-2.4-0.613-0.533-1.403-0.8-2.37-0.8v0c-0.733 0-1.333 0.217-1.8 0.65-0.467 0.433-0.7 1.05-0.7 1.85v0c0 0.667 0.257 1.24 0.77 1.72 0.52 0.487 1.163 0.903 1.93 1.25 0.767 0.353 1.9 0.797 3.4 1.33v0c2.233 0.767 4.073 1.523 5.52 2.27 1.453 0.753 2.703 1.803 3.75 3.15 1.053 1.353 1.58 3.063 1.58 5.13v0c0 2.1-0.527 3.983-1.58 5.65-1.047 1.667-2.563 2.983-4.55 3.95-1.98 0.967-4.32 1.45-7.02 1.45z" fill="#ffffff" fill-rule="nonzero" stroke="none" stroke-width="1" stroke-linecap="butt" stroke-linejoin="miter" stroke-miterlimit="10" stroke-dasharray="" stroke-dashoffset="0" font-family="none" font-weight="none" font-size="none" text-anchor="none" style="mix-blend-mode: normal" data-fill-palette-color="primary" opacity="1"></path></g></svg></g></svg></g></svg></g></svg></g><g transform="matrix(1,0,0,1,0,0.1251584869059137)"><svg viewBox="0 0 84.85321146163838 50.06339476236664" height="50.06339476236664" width="84.85321146163838"><g><svg version="1.1" xmlns="http://www.w3.org/2000/svg" xmlns:xlink="http://www.w3.org/1999/xlink" x="0" y="0" viewBox="0 0 100 59" enable-background="new 0 0 100 59" xml:space="preserve" height="50.06339476236664" width="84.85321146163838" class="icon-icon-0" data-fill-palette-color="accent" id="icon-0"><path d="M97.901 18l-0.003 0.001C96.896 7.895 88.372 0 78 0c-3.855 0-7.444 1.11-10.498 3H32.498C29.444 1.11 25.855 0 22 0 11.628 0 3.104 7.895 2.102 18.001L2.099 18C1.751 22.175 0 50.691 0 51c0 4.418 3.581 8 8 8 18.377 0 25.943-15.686 28.666-24h26.668C66.057 43.314 73.623 59 92 59c4.419 0 8-3.582 8-8C100 50.691 98.249 22.175 97.901 18zM22 32c-6.629 0-12-5.373-12-12S15.371 8 22 8s12 5.373 12 12S28.629 32 22 32zM78 32c-6.629 0-12-5.373-12-12S71.371 8 78 8s12 5.373 12 12S84.629 32 78 32z" fill="#ffffff" data-fill-palette-color="accent"></path><polygon points="31,17 25,17 25,11 19,11 19,17 13,17 13,23 19,23 19,29 25,29 25,23 31,23 " fill="#ffffff" data-fill-palette-color="accent"></polygon><path d="M78 16c0 2.21-1.79 4-4 4-2.205 0-4-1.79-4-4s1.795-4 4-4C76.21 12 78 13.79 78 16z" fill="#ffffff" data-fill-palette-color="accent"></path><path d="M86 24c0 2.21-1.79 4-4 4-2.205 0-4-1.79-4-4s1.795-4 4-4C84.21 20 86 21.79 86 24z" fill="#ffffff" data-fill-palette-color="accent"></path></svg></g></svg></g></svg></g><defs></defs></svg><rect width="395.52" height="39.299619119996954" fill="none" stroke="none" visibility="hidden"></rect></g></svg></g></svg>