<svg xmlns="http://www.w3.org/2000/svg" version="1.1" xmlns:xlink="http://www.w3.org/1999/xlink" xmlns:svgjs="http://svgjs.dev/svgjs" width="1000" height="141" viewBox="0 0 1000 141"><g transform="matrix(1,0,0,1,-0.6060587994535922,-0.5611878908910057)"><svg viewBox="0 0 396 56" data-background-color="#f9f9f9" preserveAspectRatio="xMidYMid meet" height="141" width="1000" xmlns="http://www.w3.org/2000/svg" xmlns:xlink="http://www.w3.org/1999/xlink"><g id="tight-bounds" transform="matrix(1,0,0,1,0.2399992845836323,0.2228831339708961)"><svg viewBox="0 0 395.52 55.5542337320582" height="55.5542337320582" width="395.52"><g><svg viewBox="0 0 535.9778593243993 75.28276514996939" height="55.5542337320582" width="395.52"><g transform="matrix(1,0,0,1,140.45785932439938,10.404492144460317)"><svg viewBox="0 0 395.52 54.47378086104876" height="54.47378086104876" width="395.52"><g><svg viewBox="0 0 395.52 54.47378086104876" height="54.47378086104876" width="395.52"><g><svg viewBox="0 0 395.52 54.47378086104876" height="54.47378086104876" width="395.52"><g transform="matrix(1,0,0,1,0,0)"><svg width="395.52" viewBox="1.2000000476837158 -32.400001525878906 239.27999877929688 32.96000289916992" height="54.47378086104876" data-palette-color="#030303"><path d="M21.56-4.54L21.56 0 1.2 0 1.2-31.86 6.25-31.86 6.25-4.54 21.56-4.54ZM27.19-6.54L27.19-6.54Q27.19-8.54 28.27-10.05 29.34-11.55 31.09-12.55 32.83-13.55 35.09-14.05 37.35-14.55 39.69-14.55L39.69-14.55Q40.99-14.55 41.92-14.5 42.84-14.45 43.8-14.36L43.8-14.36 43.8-15.26Q43.8-17.04 42.42-17.92 41.04-18.8 38.79-18.8L38.79-18.8Q36.74-18.8 34.62-18.23 32.49-17.65 30.59-16.55L30.59-16.55 28.54-20.51Q30.78-21.8 33.36-22.55 35.94-23.29 38.79-23.29L38.79-23.29Q40.65-23.29 42.44-22.88 44.24-22.46 45.66-21.51 47.09-20.56 47.95-19.03 48.8-17.5 48.8-15.26L48.8-15.26 48.8 0 43.8 0 43.8-3.34Q42.6-1.49 40.27-0.46 37.94 0.56 35.25 0.56L35.25 0.56Q33.59 0.56 32.11 0.11 30.64-0.34 29.56-1.25 28.49-2.15 27.84-3.48 27.19-4.81 27.19-6.54ZM36.55-3.96L36.55-3.96Q38.03-3.96 39.34-4.33 40.65-4.71 41.65-5.38 42.65-6.05 43.22-7.01 43.8-7.96 43.8-9.11L43.8-9.11 43.8-9.96Q42.6-10.16 41.55-10.18 40.5-10.21 39.69-10.21L39.69-10.21Q35.98-10.21 34.09-9.23 32.2-8.25 32.2-6.81L32.2-6.81Q32.2-3.96 36.55-3.96ZM78.68-22.29L76.78-17.36Q75.87-17.8 74.93-18.03 73.99-18.26 72.77-18.26L72.77-18.26Q71.09-18.26 69.61-17.76 68.13-17.26 67.06-16.26 65.99-15.26 65.39-13.76 64.79-12.26 64.79-10.21L64.79-10.21 64.79-4.54 69.89-4.54 69.89 0 54.58 0 54.58-4.54 59.74-4.54 59.74-18.19 54.58-18.19 54.58-22.75 64.79-22.75 64.79-17.04Q66.04-20.46 68.46-21.88 70.89-23.29 74.24-23.29L74.24-23.29Q75.29-23.29 76.44-23.07 77.58-22.85 78.68-22.29L78.68-22.29ZM81.78-6.54L81.78-6.54Q81.78-8.54 82.85-10.05 83.93-11.55 85.67-12.55 87.42-13.55 89.68-14.05 91.94-14.55 94.28-14.55L94.28-14.55Q95.57-14.55 96.5-14.5 97.43-14.45 98.38-14.36L98.38-14.36 98.38-15.26Q98.38-17.04 97-17.92 95.62-18.8 93.38-18.8L93.38-18.8Q91.33-18.8 89.2-18.23 87.08-17.65 85.17-16.55L85.17-16.55 83.12-20.51Q85.37-21.8 87.94-22.55 90.52-23.29 93.38-23.29L93.38-23.29Q95.23-23.29 97.03-22.88 98.82-22.46 100.25-21.51 101.68-20.56 102.53-19.03 103.39-17.5 103.39-15.26L103.39-15.26 103.39 0 98.38 0 98.38-3.34Q97.18-1.49 94.85-0.46 92.52 0.56 89.84 0.56L89.84 0.56Q88.18 0.56 86.7 0.11 85.22-0.34 84.15-1.25 83.07-2.15 82.43-3.48 81.78-4.81 81.78-6.54ZM91.13-3.96L91.13-3.96Q92.62-3.96 93.93-4.33 95.23-4.71 96.23-5.38 97.23-6.05 97.81-7.01 98.38-7.96 98.38-9.11L98.38-9.11 98.38-9.96Q97.18-10.16 96.14-10.18 95.09-10.21 94.28-10.21L94.28-10.21Q90.57-10.21 88.68-9.23 86.78-8.25 86.78-6.81L86.78-6.81Q86.78-3.96 91.13-3.96ZM133.17-16.65L133.17-15.84Q133.17-12.6 132.52-9.64 131.87-6.69 130.4-4.42 128.92-2.15 126.59-0.79 124.26 0.56 120.91 0.56L120.91 0.56Q117.57 0.56 115.25-0.82 112.93-2.2 111.45-4.47 109.98-6.74 109.33-9.72 108.68-12.7 108.68-15.89L108.68-15.89Q108.68-19.09 109.33-22.07 109.98-25.05 111.45-27.34 112.93-29.64 115.25-31.02 117.57-32.4 120.91-32.4L120.91-32.4Q121.87-32.4 122.87-32.13 123.87-31.86 124.77-31.31 125.67-30.76 126.37-29.96 127.07-29.15 127.36-28.1L127.36-28.1 127.36-31.86 131.92-31.86 131.92-20.56 127.36-20.56Q127.36-22.05 126.89-23.38 126.43-24.71 125.58-25.71 124.72-26.71 123.53-27.28 122.33-27.86 120.91-27.86L120.91-27.86Q118.76-27.86 117.4-26.78 116.03-25.71 115.2-24 114.37-22.29 114.04-20.17 113.71-18.04 113.71-15.89L113.71-15.89Q113.71-13.75 114.04-11.62 114.37-9.5 115.18-7.8 115.98-6.1 117.37-5.05 118.76-4 120.91-4L120.91-4Q124.01-4 125.92-5.98 127.82-7.96 128.53-12.11L128.53-12.11 121.82-12.11 121.82-16.65 133.17-16.65ZM136.36-6.54L136.36-6.54Q136.36-8.54 137.44-10.05 138.51-11.55 140.26-12.55 142-13.55 144.26-14.05 146.52-14.55 148.86-14.55L148.86-14.55Q150.16-14.55 151.09-14.5 152.01-14.45 152.97-14.36L152.97-14.36 152.97-15.26Q152.97-17.04 151.59-17.92 150.21-18.8 147.96-18.8L147.96-18.8Q145.91-18.8 143.79-18.23 141.66-17.65 139.76-16.55L139.76-16.55 137.71-20.51Q139.95-21.8 142.53-22.55 145.1-23.29 147.96-23.29L147.96-23.29Q149.82-23.29 151.61-22.88 153.41-22.46 154.83-21.51 156.26-20.56 157.12-19.03 157.97-17.5 157.97-15.26L157.97-15.26 157.97 0 152.97 0 152.97-3.34Q151.77-1.49 149.44-0.46 147.11 0.56 144.42 0.56L144.42 0.56Q142.76 0.56 141.28 0.11 139.81-0.34 138.73-1.25 137.66-2.15 137.01-3.48 136.36-4.81 136.36-6.54ZM145.72-3.96L145.72-3.96Q147.2-3.96 148.51-4.33 149.82-4.71 150.82-5.38 151.82-6.05 152.39-7.01 152.97-7.96 152.97-9.11L152.97-9.11 152.97-9.96Q151.77-10.16 150.72-10.18 149.67-10.21 148.86-10.21L148.86-10.21Q145.15-10.21 143.26-9.23 141.37-8.25 141.37-6.81L141.37-6.81Q141.37-3.96 145.72-3.96ZM186.51-16.36L186.51 0 181.45 0 181.45-15.6Q181.45-17.21 181.13-17.98 180.8-18.75 179.97-18.75L179.97-18.75Q178.45-18.75 178.05-17.05 177.65-15.36 177.65-12.11L177.65-12.11 177.65 0 172.59 0 172.59-15.6Q172.59-17.21 172.25-17.98 171.91-18.75 171.05-18.75L171.05-18.75Q169.57-18.75 169.19-17.05 168.81-15.36 168.81-12.11L168.81-12.11 168.81 0 163.75 0 163.75-22.75 168.86-22.75 168.86-19.46Q169.39-21.34 170.44-22.31 171.49-23.29 173.25-23.29L173.25-23.29Q174.72-23.29 175.71-22.4 176.69-21.51 177.06-19.95L177.06-19.95Q177.91-21.66 178.83-22.47 179.75-23.29 181.65-23.29L181.65-23.29Q183.99-23.29 185.25-21.57 186.51-19.85 186.51-16.36L186.51-16.36ZM214.75-9.45L195.69-9.45Q196.05-7.1 197.92-5.55 199.79-4 202.94-4L202.94-4Q205.4-4 207.22-4.77 209.04-5.54 210.36-6.81L210.36-6.81 212.95-3.25Q210.75-1.05 208.3-0.24 205.84 0.56 202.94 0.56L202.94 0.56Q200.3 0.56 198.03-0.32 195.76-1.2 194.1-2.77 192.44-4.35 191.5-6.52 190.56-8.69 190.56-11.35L190.56-11.35Q190.56-13.94 191.43-16.13 192.29-18.31 193.87-19.91 195.44-21.51 197.64-22.4 199.84-23.29 202.5-23.29L202.5-23.29Q205.26-23.29 207.5-22.35 209.75-21.41 211.35-19.63 212.95-17.85 213.85-15.27 214.75-12.7 214.75-9.45L214.75-9.45ZM195.91-13.89L209.04-13.89Q208.65-16.09 206.77-17.42 204.89-18.75 202.5-18.75L202.5-18.75Q200.1-18.75 198.2-17.42 196.3-16.09 195.91-13.89L195.91-13.89ZM240.48-6.81L240.48-6.81Q240.48-4.59 239.48-3.2 238.48-1.81 236.91-0.95 235.33-0.1 233.39 0.23 231.45 0.56 229.59 0.56L229.59 0.56Q226.49 0.56 223.42-0.34 220.34-1.25 218.1-2.71L218.1-2.71 220.19-6.86Q222.88-5.3 225.11-4.65 227.35-4 229.59-4L229.59-4Q232.65-4 234.04-4.65 235.43-5.3 235.43-6.45L235.43-6.45Q235.43-7.01 235.04-7.37 234.65-7.74 233.74-8.04 232.84-8.35 231.36-8.65 229.89-8.96 227.69-9.3L227.69-9.3Q225.93-9.59 224.36-10.02 222.78-10.45 221.59-11.23 220.39-12.01 219.67-13.21 218.95-14.4 218.95-16.21L218.95-16.21Q218.95-18.04 219.89-19.4 220.83-20.75 222.36-21.63 223.88-22.51 225.79-22.9 227.69-23.29 229.59-23.29L229.59-23.29Q232.28-23.29 234.81-22.6 237.33-21.9 239.24-20.61L239.24-20.61 237.24-16.7Q235.33-17.9 233.54-18.32 231.74-18.75 229.59-18.75L229.59-18.75Q228.69-18.75 227.71-18.65 226.74-18.55 225.91-18.27 225.08-17.99 224.53-17.52 223.98-17.04 223.98-16.36L223.98-16.36Q223.98-15.45 225.58-14.88 227.18-14.31 231.03-13.75L231.03-13.75Q233.13-13.45 234.87-13 236.6-12.55 237.85-11.78 239.09-11.01 239.79-9.8 240.48-8.59 240.48-6.81Z" opacity="1" transform="matrix(1,0,0,1,0,0)" fill="#ffffff" class="undefined-text-0" data-fill-palette-color="primary" id="text-0"></path></svg></g></svg></g></svg></g></svg></g><g><svg viewBox="0 0 127.59790703384644 75.28276514996939" height="75.28276514996939" width="127.59790703384644"><g><svg version="1.1" xmlns="http://www.w3.org/2000/svg" xmlns:xlink="http://www.w3.org/1999/xlink" x="0" y="0" viewBox="0 0 100 59" enable-background="new 0 0 100 59" xml:space="preserve" height="75.28276514996939" width="127.59790703384644" class="icon-icon-0" data-fill-palette-color="accent" id="icon-0"><path d="M97.901 18l-0.003 0.001C96.896 7.895 88.372 0 78 0c-3.855 0-7.444 1.11-10.498 3H32.498C29.444 1.11 25.855 0 22 0 11.628 0 3.104 7.895 2.102 18.001L2.099 18C1.751 22.175 0 50.691 0 51c0 4.418 3.581 8 8 8 18.377 0 25.943-15.686 28.666-24h26.668C66.057 43.314 73.623 59 92 59c4.419 0 8-3.582 8-8C100 50.691 98.249 22.175 97.901 18zM22 32c-6.629 0-12-5.373-12-12S15.371 8 22 8s12 5.373 12 12S28.629 32 22 32zM78 32c-6.629 0-12-5.373-12-12S71.371 8 78 8s12 5.373 12 12S84.629 32 78 32z" fill="#ffffff" data-fill-palette-color="accent"></path><polygon points="31,17 25,17 25,11 19,11 19,17 13,17 13,23 19,23 19,29 25,29 25,23 31,23 " fill="#ffffff" data-fill-palette-color="accent"></polygon><path d="M78 16c0 2.21-1.79 4-4 4-2.205 0-4-1.79-4-4s1.795-4 4-4C76.21 12 78 13.79 78 16z" fill="#ffffff" data-fill-palette-color="accent"></path><path d="M86 24c0 2.21-1.79 4-4 4-2.205 0-4-1.79-4-4s1.795-4 4-4C84.21 20 86 21.79 86 24z" fill="#ffffff" data-fill-palette-color="accent"></path></svg></g></svg></g></svg></g><defs></defs></svg><rect width="395.52" height="55.5542337320582" fill="none" stroke="none" visibility="hidden"></rect></g></svg></g></svg>